<svg width="21" height="21" viewBox="0 0 21 21" fill="none" xmlns="http://www.w3.org/2000/svg">
    <circle cx="10.5" cy="10.5" r="10.5" fill="#D93D04"/>
    <path d="m12.817 6.718-.015-.014-1.625-1.546a.574.574 0 0 0-.783 0l-5.232 4.977a.509.509 0 0 0 0 .745l1.64 1.56a.574.574 0 0 0 .783 0l5.232-4.977a.509.509 0 0 0 0-.745z" fill="#fff"/>
    <path d="m15.727 14.32-2.443-2.324a.406.406 0 0 0-.554 0l-.02.02a.05.05 0 0 1-.07 0l-.773-.736a.289.289 0 0 1-.064-.335l3.155-3.33.02-.03a.933.933 0 0 0-.162-1.17l-1.19-1.131a1.056 1.056 0 0 0-1.44 0l-.04.037a.082.082 0 0 0 0 .12l.373.354a.092.092 0 0 0 .126 0l.039-.037a.326.326 0 0 1 .444 0l1.188 1.13a.289.289 0 0 1 .064.336l-3.155 3.33-.019.03a.933.933 0 0 0 .162 1.17l.775.737c.02.019.017.048-.002.066a.36.36 0 0 0 .001.526l1.447 1.377c.182.173.285.403.316.646.033.252.158.486.353.66.366.328.945.305 1.3-.033.055-.05.111-.105.17-.16a.855.855 0 0 0 0-1.252z" fill="#fff"/>
</svg>
